<svg xmlns="http://www.w3.org/2000/svg" width="1450" height="960" viewBox="0 0 1450 960" role="img" aria-labelledby="title desc">
  <title id="title">Casos de uso da Comunicação</title>
  <desc id="desc">Diagrama UML da abertura de conversas, mensagens e indicadores de não lidas.</desc>
  <defs>
    <linearGradient id="shared" x1="0" y1="0" x2="1" y2="0"><stop offset="0%" stop-color="#008f5a" /><stop offset="100%" stop-color="#db2777" /></linearGradient>
    <filter id="shadow" x="-20%" y="-20%" width="140%" height="140%"><feDropShadow dx="0" dy="4" stdDeviation="6" flood-color="#0f172a" flood-opacity="0.12" /></filter>
    <marker id="arrow" markerWidth="10" markerHeight="10" refX="9" refY="5" orient="auto"><path d="M1 1 L9 5 L1 9" fill="none" stroke="#dc2626" stroke-width="1.8" /></marker>
  </defs>
  <rect width="1450" height="960" fill="#f8fafc" />
  <rect x="190" y="50" width="1070" height="860" rx="28" fill="#ffffff" stroke="#334155" stroke-width="3" />
  <rect x="220" y="75" width="390" height="50" rx="25" fill="url(#shared)" /><text x="415" y="108" text-anchor="middle" fill="#ffffff" font-family="Inter, Arial, sans-serif" font-size="23" font-weight="700">Casos de uso — Comunicação</text>

  <g fill="none" stroke="#008f5a" stroke-width="3" opacity="0.58"><path d="M155 470 L520 320" /><path d="M155 470 L520 450" /><path d="M155 470 L520 580" /><path d="M155 470 L520 710" /></g>
  <g fill="none" stroke="#db2777" stroke-width="3" opacity="0.58"><path d="M1295 470 L880 320" /><path d="M1295 470 L880 450" /><path d="M1295 470 L880 580" /><path d="M1295 470 L880 710" /><path d="M1295 470 L1125 165" /><path d="M1295 470 L1125 255" /></g>

  <g font-family="Inter, Arial, sans-serif" font-size="18" font-weight="650" text-anchor="middle" fill="#ffffff" filter="url(#shadow)">
    <ellipse cx="950" cy="165" rx="175" ry="42" fill="#db2777" stroke="#9d174d" stroke-width="3" /><text x="950" y="171">Analisar candidatura</text>
    <ellipse cx="950" cy="255" rx="175" ry="42" fill="#db2777" stroke="#9d174d" stroke-width="3" /><text x="950" y="261">Liberar conversa</text>
    <ellipse cx="700" cy="320" rx="180" ry="45" fill="url(#shared)" stroke="#334155" stroke-width="3" /><text x="700" y="326">Listar conversas</text>
    <ellipse cx="700" cy="450" rx="180" ry="45" fill="url(#shared)" stroke="#334155" stroke-width="3" /><text x="700" y="456">Abrir conversa</text>
    <ellipse cx="700" cy="580" rx="180" ry="45" fill="url(#shared)" stroke="#334155" stroke-width="3" /><text x="700" y="586">Enviar mensagem</text>
    <ellipse cx="700" cy="710" rx="180" ry="45" fill="url(#shared)" stroke="#334155" stroke-width="3" /><text x="700" y="706">Consultar mensagens</text><text x="700" y="729">não lidas</text>
    <ellipse cx="475" cy="845" rx="175" ry="42" fill="#dc2626" stroke="#991b1b" stroke-width="3" /><text x="475" y="851">Validar participante</text>
    <ellipse cx="925" cy="845" rx="175" ry="42" fill="#dc2626" stroke="#991b1b" stroke-width="3" /><text x="925" y="841">Marcar recebidas</text><text x="925" y="864">como lidas</text>
  </g>

  <g fill="none" stroke="#dc2626" stroke-width="2.5" stroke-dasharray="9 7" marker-end="url(#arrow)">
    <path d="M950 213 V207" /><path d="M620 490 H475 V803" /><path d="M620 600 H520 V803" /><path d="M780 490 H925 V803" />
  </g>
  <g font-family="Inter, Arial, sans-serif" font-size="15" font-weight="700" fill="#991b1b" text-anchor="middle">
    <text x="1015" y="225">«extend»</text><text x="520" y="475">«include»</text><text x="535" y="585">«include»</text><text x="885" y="475">«include»</text>
  </g>

  <g fill="none" stroke="#008f5a" stroke-width="8" stroke-linecap="round" stroke-linejoin="round"><circle cx="90" cy="385" r="27" fill="#d1fae5" /><path d="M90 412 V480 M48 443 H132 M90 480 L52 530 M90 480 L128 530" /></g>
  <text x="90" y="570" text-anchor="middle" fill="#006b44" font-family="Inter, Arial, sans-serif" font-size="22" font-weight="750">Talento</text>
  <g fill="none" stroke="#db2777" stroke-width="8" stroke-linecap="round" stroke-linejoin="round"><circle cx="1360" cy="385" r="27" fill="#fce7f3" /><path d="M1360 412 V480 M1318 443 H1402 M1360 480 L1322 530 M1360 480 L1398 530" /></g>
  <text x="1360" y="570" text-anchor="middle" fill="#9d174d" font-family="Inter, Arial, sans-serif" font-size="22" font-weight="750">Organizador</text>
</svg>
